# xmcd
#
# Track frame offsets: 
#        150
#        18380
#        40457
#        56247
#        71900
#        90320
#        109092
#        126685
#        148695
#        165865
#        181052
#        200905
#        228975
#        259442
#
# Disc length: 4199 seconds
#
# Revision: 1
# Processed by: cddbd v1.5.2PL0 Copyright (c) Steve Scherf et al.
# Submitted via: ExactAudioCopyFreeDBPlugin 1.0
#
DISCID=d110650e
DTITLE=THE COLLECTORS - SILVER SPRUCE The Best of The Collectors Again
DYEAR=2000
DGENRE=JPop
TTITLE0=TOUGH all the boys gotta be tough
TTITLE1=百億のキッスと千億の誓い
TTITLE2=TEENAGE FRANKENSTEIN
TTITLE3=センチメンタル･スウィート･ハートクエイク
TTITLE4=GLORY DAYS
TTITLE5=CASH and MODEL GUN
TTITLE6=涙のレインボーアイズ
TTITLE7=BUTTERFLY KISS
TTITLE8=GIULIETTA
TTITLE9=クルーソー
TTITLE10=LOVE SICK!
TTITLE11=嘆きのロミオ
TTITLE12=GIFT
TTITLE13=CD EXTRA DATA TRACK
EXTD=YEAR: 2000
EXTT0=
EXTT1=
EXTT2=
EXTT3=
EXTT4=
EXTT5=
EXTT6=
EXTT7=
EXTT8=
EXTT9=
EXTT10=
EXTT11=
EXTT12=
EXTT13=
PLAYORDER=
